<?xml version="1.0" encoding="UTF-8" standalone="no"?>
<!DOCTYPE svg PUBLIC "-//W3C//DTD SVG 1.1//EN" "http://www.w3.org/Graphics/SVG/1.1/DTD/svg11.dtd">
<!-- Created with Vectornator (http://vectornator.io/) -->
<svg height="100%" stroke-miterlimit="10" style="fill-rule:nonzero;clip-rule:evenodd;stroke-linecap:round;stroke-linejoin:round;" version="1.1" viewBox="67.4994 608.489 889.001 352.136" width="100%" xml:space="preserve" xmlns="http://www.w3.org/2000/svg" xmlns:xlink="http://www.w3.org/1999/xlink">
<defs>
<filter color-interpolation-filters="sRGB" filterUnits="userSpaceOnUse" height="129.428" id="Filter" width="298.176" x="67.4994" y="831.198">
<feGaussianBlur in="SourceGraphic" result="Blur" stdDeviation="3.51809"/>
</filter>
<filter color-interpolation-filters="sRGB" filterUnits="userSpaceOnUse" height="155.052" id="Filter_2" width="306.925" x="649.576" y="608.489">
<feGaussianBlur in="SourceGraphic" result="Blur" stdDeviation="3.51809"/>
</filter>
<filter color-interpolation-filters="sRGB" filterUnits="userSpaceOnUse" height="157.332" id="Filter_3" width="324.754" x="546.706" y="774.311">
<feGaussianBlur in="SourceGraphic" result="Blur" stdDeviation="3.51809"/>
</filter>
<filter color-interpolation-filters="sRGB" filterUnits="userSpaceOnUse" height="154.12" id="Filter_4" width="306.655" x="152.54" y="640.855">
<feGaussianBlur in="SourceGraphic" result="Blur" stdDeviation="3.51809"/>
</filter>
</defs>
<g id="レイヤー-2">
<g opacity="1">
<path d="M90.8839 839.995C83.7052 839.875 77.788 845.596 77.6673 852.775C77.3246 873.171 76.6392 913.961 76.2965 934.357C76.1759 941.536 81.8976 947.453 89.0763 947.574C152.378 948.637 278.989 950.765 342.291 951.829C349.469 951.949 355.387 946.227 355.507 939.049C355.85 918.653 356.535 877.862 356.878 857.467C356.999 850.288 351.277 844.371 344.098 844.25C280.797 843.186 154.185 841.059 90.8839 839.995Z" fill="#000000" fill-rule="nonzero" filter="url(#Filter)" opacity="0.32" stroke="none"/>
<path d="M90.8839 836.995C83.7052 836.875 77.788 842.596 77.6673 849.775C77.3246 870.171 76.6392 910.961 76.2965 931.357C76.1759 938.536 81.8976 944.453 89.0763 944.574C152.378 945.637 278.989 947.765 342.291 948.829C349.469 948.949 355.387 943.227 355.507 936.049C355.85 915.653 356.535 874.862 356.878 854.467C356.999 847.288 351.277 841.371 344.098 841.25C280.797 840.186 154.185 838.059 90.8839 836.995Z" fill="#ececec" fill-rule="nonzero" opacity="1" stroke="none"/>
<path d="M90.6588 849.992L343.864 854.246L342.494 935.829L89.288 931.574L90.6588 849.992Z" fill="#ffffff" fill-rule="nonzero" opacity="1" stroke="none"/>
<path d="M90.6588 849.992L343.864 854.246L343.696 864.245L90.4908 859.99L90.6588 849.992Z" fill="#0087ff" fill-rule="nonzero" opacity="1" stroke="none"/>
<path d="M293.75 886.188C293.11 886.177 292.434 886.426 291.938 886.906C290.945 887.866 290.915 889.445 291.875 890.438L299.969 898.812L291.625 906.906C290.632 907.866 290.603 909.445 291.562 910.438C292.522 911.43 294.101 911.46 295.094 910.5L303.469 902.406L311.562 910.781C312.522 911.774 314.101 911.804 315.094 910.844C316.086 909.884 316.085 908.305 315.125 907.312L307.031 898.938L315.406 890.844C316.399 889.884 316.428 888.305 315.469 887.312C314.989 886.816 314.39 886.542 313.75 886.531C313.11 886.521 312.434 886.77 311.938 887.25L303.562 895.344L295.469 886.969C294.989 886.472 294.39 886.198 293.75 886.188Z" fill="#cfcfcf" fill-rule="nonzero" opacity="1" stroke="none"/>
<path d="M119.547 890.766C116.786 890.719 114.51 892.92 114.464 895.681C114.417 898.442 116.618 900.718 119.379 900.764L244.018 902.858C246.779 902.905 249.055 900.704 249.101 897.943C249.147 895.182 246.947 892.906 244.186 892.86L119.547 890.766Z" fill="#cfcfcf" fill-rule="nonzero" opacity="1" stroke="none"/>
<path d="M76.2965 931.357C76.1759 938.536 81.8976 944.453 89.0763 944.574L342.291 948.829C349.469 948.949 355.387 943.228 355.507 936.049L76.2965 931.357Z" fill="#ffffff" fill-rule="nonzero" opacity="1" stroke="none"/>
</g>
<g opacity="1">
<path d="M667.942 637.165C669.149 626.185 679.028 618.263 690.008 619.47L927.825 645.612C938.805 646.818 946.727 656.698 945.52 667.677L938.134 734.866C936.927 745.846 927.048 753.768 916.069 752.561L678.251 726.419C667.272 725.212 659.349 715.333 660.556 704.354L667.942 637.165Z" fill="#000000" fill-rule="nonzero" filter="url(#Filter_2)" opacity="0.32" stroke="none"/>
<path d="M667.942 634.165C669.149 623.185 679.028 615.263 690.008 616.47L927.825 642.612C938.805 643.818 946.727 653.698 945.52 664.677L938.134 731.866C936.927 742.846 927.048 750.768 916.069 749.561L678.251 723.419C667.272 722.212 659.349 712.333 660.556 701.354L667.942 634.165Z" fill="#ececec" fill-rule="nonzero" opacity="1" stroke="none"/>
<path d="M680.535 638.565C681.138 633.075 686.078 629.114 691.568 629.718L923.412 655.203C928.902 655.806 932.863 660.746 932.26 666.236L925.53 727.461C924.926 732.951 919.987 736.912 914.497 736.309L682.652 710.824C677.162 710.22 673.201 705.281 673.805 699.791L680.535 638.565Z" fill="#ffffff" fill-rule="nonzero" opacity="1" stroke="none"/>
<path d="M680.535 638.565C681.138 633.075 686.078 629.114 691.568 629.718L923.412 655.203C928.902 655.806 932.863 660.746 932.26 666.236L925.53 727.461C924.926 732.951 919.987 736.912 914.497 736.309L682.652 710.824C677.162 710.22 673.201 705.281 673.805 699.791L680.535 638.565Z" fill="#ffffff" fill-rule="nonzero" opacity="1" stroke="none"/>
<path d="M901.619 681.284C900.983 681.214 900.309 681.372 899.77 681.804L877.705 699.499C876.627 700.363 876.455 701.932 877.319 703.009C878.182 704.086 879.783 704.262 880.86 703.398L902.925 685.703C904.003 684.839 904.175 683.27 903.311 682.193C902.879 681.655 902.255 681.354 901.619 681.284Z" fill="#cfcfcf" fill-rule="nonzero" opacity="1" stroke="none"/>
<path d="M881.739 679.099C881.103 679.029 880.428 679.187 879.89 679.619C878.813 680.482 878.64 682.052 879.504 683.129L897.199 705.194C898.063 706.271 899.663 706.447 900.74 705.584C901.817 704.72 901.99 703.151 901.126 702.073L883.431 680.008C882.999 679.469 882.375 679.169 881.739 679.099Z" fill="#cfcfcf" fill-rule="nonzero" opacity="1" stroke="none"/>
<path d="M707.868 667.531C705.123 667.23 702.653 669.21 702.352 671.955C702.05 674.7 704.031 677.17 706.775 677.472L830.716 691.096C833.461 691.397 835.931 689.417 836.233 686.672C836.535 683.927 834.554 681.457 831.809 681.155L707.868 667.531Z" fill="#cfcfcf" fill-rule="nonzero" opacity="1" stroke="none"/>
</g>
<g opacity="1">
<path d="M580.868 789.286C566.512 789.636 555.159 801.557 555.509 815.912C556.006 836.304 557 877.089 557.497 897.481C557.847 911.836 569.768 923.19 584.123 922.84C647.415 921.297 774.006 918.211 837.298 916.668C851.653 916.318 863.007 904.398 862.657 890.043C862.159 869.65 861.165 828.866 860.668 808.473C860.318 794.118 848.398 782.764 834.042 783.114C770.751 784.657 644.159 787.743 580.868 789.286Z" fill="#000000" fill-rule="nonzero" filter="url(#Filter_3)" opacity="0.32" stroke="none"/>
<path d="M580.868 786.286C566.512 786.636 555.159 798.557 555.509 812.912C556.006 833.304 557 874.089 557.497 894.481C557.847 908.836 569.768 920.19 584.123 919.84C647.415 918.297 774.006 915.211 837.298 913.668C851.653 913.318 863.007 901.398 862.657 887.043C862.159 866.65 861.165 825.866 860.668 805.473C860.318 791.118 848.398 779.764 834.042 780.114C770.751 781.657 644.159 784.743 580.868 786.286Z" fill="#e6eaed" fill-rule="nonzero" opacity="1" stroke="none"/>
<path d="M582.002 832.262C581.733 821.22 590.466 812.05 601.509 811.781L814.687 806.584C825.729 806.315 834.899 815.048 835.168 826.091L836.182 867.673C836.451 878.715 827.718 887.885 816.675 888.154L603.497 893.351C592.455 893.62 583.285 884.887 583.016 873.844L582.002 832.262Z" fill="#ffffff" fill-rule="nonzero" opacity="1" stroke="none"/>
<path d="M582.495 853.047L583.002 873.854C583.271 884.896 574.538 894.066 563.495 894.335L557.497 894.481C557.847 908.836 569.768 920.19 584.123 919.84C647.415 918.297 774.006 915.211 837.298 913.668C851.653 913.318 863.007 901.398 862.657 887.043L856.658 887.189C845.616 887.458 836.446 878.725 836.177 867.682L835.67 846.876L582.495 853.047Z" fill="#ffffff" fill-rule="nonzero" opacity="1" stroke="none"/>
<path d="M807.437 835.092C806.797 835.107 806.15 835.354 805.673 835.853L786.167 856.335C785.215 857.335 785.253 858.913 786.253 859.865C787.253 860.817 788.862 860.778 789.814 859.778L809.321 839.297C810.273 838.297 810.235 836.719 809.235 835.767C808.735 835.291 808.076 835.076 807.437 835.092Z" fill="#cfcfcf" fill-rule="nonzero" opacity="1" stroke="none"/>
<path d="M787.443 835.579C786.803 835.595 786.156 835.841 785.679 836.341C784.727 837.341 784.766 838.919 785.765 839.871L806.247 859.378C807.247 860.33 808.856 860.291 809.808 859.291C810.761 858.291 810.722 856.713 809.722 855.761L789.241 836.254C788.741 835.778 788.082 835.563 787.443 835.579Z" fill="#cfcfcf" fill-rule="nonzero" opacity="1" stroke="none"/>
<path d="M615.895 847.263C613.135 847.33 610.951 849.623 611.018 852.383C611.086 855.144 613.378 857.327 616.139 857.26L740.758 854.222C743.519 854.155 745.702 851.862 745.635 849.102C745.567 846.341 743.275 844.158 740.514 844.225L615.895 847.263Z" fill="#cfcfcf" fill-rule="nonzero" opacity="1" stroke="none"/>
</g>
<g opacity="1">
<path d="M474.854 669.825L562.716 681.144C572.794 682.443 584.136 691.096 588.051 700.473L622.179 782.223C626.094 791.6 624.271 805.75 618.108 813.828L564.374 884.259C558.211 892.337 545.045 897.833 534.968 896.535L447.106 885.216C437.028 883.918 425.686 875.264 421.771 865.888L387.643 784.137C383.728 774.761 385.551 760.611 391.714 752.533L445.448 682.102C451.611 674.023 464.777 668.527 474.854 669.825Z" fill="#5309e8" fill-rule="nonzero" opacity="1" stroke="none"/>
<path d="M582.449 692.068C559.448 715.762 536.448 739.457 513.448 763.151C517.716 765.628 521.821 768.723 525.638 772.488C529.069 775.874 532.077 779.567 534.599 783.499C554.201 760.101 573.805 736.705 593.406 713.307L588.047 700.472C586.82 697.533 584.868 694.661 582.449 692.068ZM493.345 771.272C477.103 768.99 462.035 779.802 457.629 799.081C453.551 816.926 436.715 824.9 431.739 824.073C449.94 851.887 493.745 851.46 511.96 836.072C537.067 814.863 527.324 794.769 515.33 782.935C508.356 776.054 500.728 772.309 493.345 771.272Z" fill="#ffffff" fill-rule="nonzero" opacity="1" stroke="none"/>
</g>
<g opacity="1">
<path d="M163.451 699.078C162.283 688.094 170.24 678.243 181.223 677.075L419.131 651.766C430.115 650.598 439.966 658.555 441.134 669.538L448.285 736.753C449.453 747.737 441.496 757.588 430.512 758.756L192.605 784.065C181.621 785.233 171.77 777.276 170.601 766.292L163.451 699.078Z" fill="#000000" fill-rule="nonzero" filter="url(#Filter_4)" opacity="0.32" stroke="none"/>
<path d="M163.451 696.078C162.283 685.094 170.24 675.243 181.223 674.075L419.131 648.766C430.115 647.598 439.966 655.555 441.134 666.538L448.285 733.753C449.453 744.737 441.496 754.588 430.512 755.756L192.605 781.065C181.621 782.233 171.77 774.276 170.601 763.292L163.451 696.078Z" fill="#ececec" fill-rule="nonzero" opacity="1" stroke="none"/>
<path d="M176.691 697.681C176.107 692.189 180.085 687.264 185.577 686.679L417.51 662.007C423.002 661.422 427.927 665.401 428.512 670.893L435.027 732.142C435.611 737.633 431.633 742.559 426.141 743.143L194.208 767.816C188.717 768.4 183.791 764.422 183.207 758.93L176.691 697.681Z" fill="#ffffff" fill-rule="nonzero" opacity="1" stroke="none"/>
<path d="M182.247 750.017L183.196 758.936C183.78 764.428 179.801 769.353 174.309 769.937L172.663 770.113C176.293 777.347 184.065 781.973 192.589 781.066L430.497 755.758C439.022 754.851 445.677 748.692 447.704 740.854L446.026 741.033C440.535 741.617 435.609 737.638 435.025 732.147L434.076 723.228L182.247 750.017Z" fill="#ffffff" fill-rule="nonzero" opacity="1" stroke="none"/>
<path d="M401.024 692.214C400.388 692.282 399.797 692.608 399.363 693.145L381.591 715.149C380.723 716.223 380.89 717.792 381.965 718.66C383.039 719.528 384.608 719.361 385.476 718.286L403.248 696.283C404.116 695.209 403.949 693.639 402.875 692.772C402.338 692.338 401.66 692.147 401.024 692.214Z" fill="#cfcfcf" fill-rule="nonzero" opacity="1" stroke="none"/>
<path d="M381.136 694.33C380.5 694.397 379.909 694.724 379.475 695.261C378.608 696.335 378.775 697.905 379.849 698.772L401.852 716.544C402.926 717.412 404.496 717.245 405.364 716.171C406.231 715.097 406.064 713.527 404.99 712.659L382.987 694.887C382.45 694.453 381.772 694.262 381.136 694.33Z" fill="#cfcfcf" fill-rule="nonzero" opacity="1" stroke="none"/>
<path d="M208.844 720.2C206.098 720.492 204.109 722.955 204.401 725.701C204.693 728.447 207.156 730.436 209.902 730.144L333.858 716.958C336.604 716.666 338.594 714.203 338.301 711.457C338.009 708.711 335.547 706.722 332.801 707.014L208.844 720.2Z" fill="#cfcfcf" fill-rule="nonzero" opacity="1" stroke="none"/>
</g>
</g>
</svg>
