<?xml version="1.0" encoding="UTF-8" standalone="no"?>
<!DOCTYPE svg PUBLIC "-//W3C//DTD SVG 1.1//EN" "http://www.w3.org/Graphics/SVG/1.1/DTD/svg11.dtd">
<!-- Created with Vectornator (http://vectornator.io/) -->
<svg height="777.0pt" stroke-miterlimit="10" style="fill-rule:nonzero;clip-rule:evenodd;stroke-linecap:round;stroke-linejoin:round;" version="1.1" viewBox="0 0 2540 777" width="2540.0pt" xml:space="preserve" xmlns="http://www.w3.org/2000/svg" xmlns:xlink="http://www.w3.org/1999/xlink">
<defs>
<linearGradient gradientTransform="matrix(0.368581 732.676 -732.676 0.368581 444.929 22.4975)" gradientUnits="userSpaceOnUse" id="LinearGradient" x1="0" x2="1" y1="0" y2="0">
<stop offset="0" stop-color="#7405e8"/>
<stop offset="0.5" stop-color="#5309e8"/>
<stop offset="1" stop-color="#0511e8"/>
</linearGradient>
<filter color-interpolation-filters="sRGB" filterUnits="userSpaceOnUse" height="625.43" id="Filter" width="695.77" x="96.9454" y="83.7851">
<feDropShadow dx="-2.89599e-05" dy="8" flood-color="#130054" flood-opacity="0.354228" in="SourceGraphic" result="Shadow" stdDeviation="16"/>
</filter>
<radialGradient cx="0" cy="0" gradientTransform="matrix(677.594 0 0 677.594 444.801 -34.5816)" gradientUnits="userSpaceOnUse" id="RadialGradient" r="1">
<stop offset="0" stop-color="#381e95"/>
<stop offset="0.69958" stop-color="#260b85"/>
<stop offset="1" stop-color="#1c056c"/>
</radialGradient>
<linearGradient gradientTransform="matrix(8.63754e-14 542.014 -542.014 0 446.622 120.267)" gradientUnits="userSpaceOnUse" id="LinearGradient_2" x1="0" x2="1" y1="0" y2="0">
<stop offset="0" stop-color="#ffffff"/>
<stop offset="1" stop-color="#c1c3e5"/>
</linearGradient>
</defs>
<g id="黒文字">
<g opacity="1">
<path d="M1130.76 215.381L1130.76 561.62L1192.12 561.62L1192.12 215.381L1130.76 215.381Z" fill="#000000" fill-rule="nonzero" opacity="1" stroke="none"/>
<path d="M1419.79 215.381L1419.79 561.617L1481.15 561.617L1481.15 215.381L1419.79 215.381Z" fill="#000000" fill-rule="nonzero" opacity="1" stroke="none"/>
<path d="M2232.89 306.959L2232.89 622.463L2294.25 622.463L2294.25 306.959L2232.89 306.959Z" fill="#000000" fill-rule="nonzero" opacity="1" stroke="none"/>
<path d="M2030.91 306.959L2030.91 561.617L2092.27 561.617L2092.27 306.959L2030.91 306.959Z" fill="#000000" fill-rule="nonzero" opacity="1" stroke="none"/>
<path d="M1130.76 215.381L1130.76 276.741L1377.88 276.741L1377.88 215.381L1130.76 215.381Z" fill="#000000" fill-rule="nonzero" opacity="1" stroke="none"/>
<path d="M1135.88 367.928L1135.88 419.061L1357.77 419.061L1357.77 367.928L1135.88 367.928Z" fill="#000000" fill-rule="nonzero" opacity="1" stroke="none"/>
<path d="M1875.81 306.888C1833.1 305.146 1796.98 326.102 1755.76 386.89C1713.41 324.907 1673.69 302.637 1630.69 307.847C1553.52 317.197 1506.53 396.291 1527.79 471.047C1535.89 499.537 1551.94 523.505 1576.68 540.928C1593.42 552.709 1615.77 560.983 1632.08 561.701C1675.67 563.621 1714.91 540.821 1755.65 482.445C1797.75 542.715 1838.14 565.7 1880.61 561.488C1915.76 558.001 1942.16 539.847 1963.27 513.125C1980.91 490.799 1989.66 459.061 1989.05 430.353C1988.85 420.784 1987.52 411.523 1985.22 403.082C1979.1 380.702 1973.14 367.585 1958.48 349.712C1937.61 324.28 1907.78 308.192 1875.81 306.888ZM1873.79 357.915C1890.53 358.597 1906.98 367.499 1918.96 382.096C1928.43 393.64 1931.52 400.594 1935.89 416.611C1941.01 435.311 1936.11 464.921 1923.11 481.38C1909.8 498.226 1894.55 508.678 1875.49 510.568C1864.57 511.651 1854.31 509.18 1841.4 500.342C1824.57 488.814 1805.94 467.154 1785.8 434.827C1806.52 400.934 1824.88 378.945 1840.98 367.715C1852.68 359.55 1861.41 357.41 1873.79 357.915ZM1636.87 358.66C1647.88 357.326 1657.39 359.355 1669.68 367.715C1686.32 379.023 1705.03 401.195 1725.61 434.934C1706.09 466.39 1687.95 487.523 1671.28 499.063C1658.08 508.205 1647.03 511.128 1634.32 510.568C1628.26 510.301 1615.16 505.561 1606.09 499.17C1591.35 488.798 1582.03 474.762 1577 457.091C1564.02 411.44 1592.16 364.077 1636.87 358.66Z" fill="#000000" fill-rule="nonzero" opacity="1" stroke="none"/>
<path d="M2193.05 300.496L2174.56 301.094C2116.66 302.831 2060.85 376.977 2058.6 404.897C2058.6 404.897 2032.13 433.266 2031.56 438.236C2031.18 441.441 2030.98 444.002 2030.92 445.693L2092.28 447.824C2092.27 439.848 2091.14 399.216 2118.74 379.69C2151.02 356.856 2193.48 361.856 2193.48 361.856L2193.05 300.496Z" fill="#000000" fill-rule="nonzero" opacity="1" stroke="none"/>
<path d="M2378.73 301.775C2301.84 303.766 2259.88 376.355 2260.27 432.697C2260.63 485.288 2303.94 565.194 2378.73 563.619C2443.47 562.255 2497.5 505.714 2497.5 432.697C2497.51 359.68 2443.47 300.098 2378.73 301.775ZM2369.03 355.678C2409.89 355.678 2443.92 389.564 2443.92 432.377C2443.92 475.19 2409.89 509.183 2369.03 509.183C2328.18 509.183 2294.25 475.19 2294.25 432.377C2294.25 389.564 2328.18 355.677 2369.03 355.678Z" fill="#000000" fill-rule="nonzero" opacity="1" stroke="none"/>
</g>
<g opacity="1">
<path d="M295.171 21.6157L594.488 21.6157C628.82 21.6157 670.566 45.7179 687.731 75.4492L837.39 334.666C854.558 364.397 854.558 412.602 837.39 442.334L687.731 701.55C670.566 731.282 628.82 755.384 594.488 755.384L295.171 755.384C260.839 755.384 219.093 731.282 201.928 701.55L52.2691 442.334C35.1035 412.602 35.1035 364.397 52.2691 334.666L201.928 75.4492C219.093 45.7178 260.839 21.6157 295.171 21.6157Z" fill="url(#LinearGradient)" fill-rule="nonzero" opacity="1" stroke="none"/>
<g filter="url(#Filter)">
<path d="M597.357 143.659L733.131 378.829C736.215 384.17 736.215 392.83 733.131 398.171L597.357 633.341C594.273 638.683 586.773 643.012 580.606 643.012L309.055 643.012C302.887 643.012 295.387 638.683 292.304 633.341L156.528 398.171C153.444 392.83 153.444 384.17 156.528 378.829L292.304 143.659C295.387 138.317 302.887 133.988 309.055 133.988L580.606 133.988C586.773 133.988 594.273 138.317 597.357 143.659Z" fill="url(#RadialGradient)" fill-rule="nonzero" opacity="1" stroke="none"/>
<path d="M311.3 115.785C298.083 115.785 282.016 125.074 275.407 136.52L141.902 367.764C135.293 379.211 135.293 397.789 141.902 409.236L275.407 640.48C282.016 651.926 298.082 661.215 311.3 661.215L316.465 661.215C323.767 661.215 329.686 655.296 329.686 647.994L329.686 472.967C329.686 467.49 334.126 463.051 339.602 463.051L705.925 463.051C711.833 463.051 719.001 458.935 722.013 453.831L747.758 409.236C754.367 397.789 754.367 379.211 747.758 367.764L743.808 360.947C740.911 355.932 733.873 351.857 728.081 351.857L339.602 351.857C334.126 351.857 329.686 347.418 329.686 341.941L329.686 235.654C329.686 230.178 334.126 225.738 339.602 225.738L648.004 225.738C657.807 225.738 661.793 218.86 656.913 210.374L614.254 136.52C607.645 125.074 591.578 115.785 578.36 115.785L311.3 115.785Z" fill="url(#LinearGradient_2)" fill-rule="nonzero" opacity="1" stroke="none"/>
</g>
</g>
</g>
</svg>
