<?xml version="1.0" encoding="UTF-8" standalone="no"?>
<!DOCTYPE svg PUBLIC "-//W3C//DTD SVG 1.1//EN" "http://www.w3.org/Graphics/SVG/1.1/DTD/svg11.dtd">
<!-- Created with Vectornator (http://vectornator.io/) -->
<svg height="100%" stroke-miterlimit="10" style="fill-rule:nonzero;clip-rule:evenodd;stroke-linecap:round;stroke-linejoin:round;" version="1.1" viewBox="67.5148 572.369 888.985 351.904" width="100%" xml:space="preserve" xmlns="http://www.w3.org/2000/svg" xmlns:xlink="http://www.w3.org/1999/xlink">
<defs>
<filter color-interpolation-filters="sRGB" filterUnits="userSpaceOnUse" height="351.904" id="Filter" width="545.168" x="67.5148" y="572.369">
<feGaussianBlur in="SourceGraphic" result="Blur" stdDeviation="3.51809"/>
</filter>
<filter color-interpolation-filters="sRGB" filterUnits="userSpaceOnUse" height="190.204" id="Filter_2" width="166.844" x="789.656" y="598.475">
<feGaussianBlur in="SourceGraphic" result="Blur" stdDeviation="3.51809"/>
</filter>
</defs>
<g id="レイヤー-3">
<g opacity="1">
<path d="M96.283 606.761C85.2522 607.336 76.7756 616.743 77.35 627.774L91.2907 895.505C91.8651 906.536 101.273 915.013 112.304 914.438L583.915 889.882C594.945 889.307 603.422 879.899 602.848 868.869L588.907 601.138C588.333 590.107 578.925 581.63 567.894 582.205L96.283 606.761Z" fill="#000000" fill-rule="nonzero" filter="url(#Filter)" opacity="0.32" stroke="none"/>
<path d="M96.3476 603.756C85.3169 604.331 76.8402 613.738 77.4144 624.769L91.3519 892.5C91.9262 903.531 101.334 912.008 112.365 911.433L583.976 886.882C595.007 886.308 603.483 876.9 602.909 865.87L588.972 598.139C588.398 587.108 578.99 578.631 567.959 579.205L96.3476 603.756Z" fill="#ffffff" fill-rule="nonzero" opacity="1" stroke="none"/>
<path d="M90.5518 627.092C90.2647 621.577 94.503 616.873 100.018 616.586L565.624 592.348C571.139 592.061 575.843 596.299 576.13 601.814L589.755 863.535C590.042 869.05 585.803 873.754 580.288 874.041L114.683 898.28C109.167 898.567 104.463 894.329 104.176 888.813L90.5518 627.092Z" fill="#eeeeee" fill-rule="nonzero" opacity="1" stroke="none"/>
<g opacity="1">
<path d="M161.136 809.788C158.378 809.932 156.259 812.283 156.403 815.041C156.546 817.799 158.898 819.918 161.656 819.774L192.364 818.176C195.122 818.032 197.241 815.68 197.098 812.923C196.954 810.165 194.602 808.046 191.844 808.189L161.136 809.788Z" fill="#ff613d" fill-rule="nonzero" opacity="1" stroke="none"/>
<path d="M336.96 800.635C334.203 800.778 332.084 803.13 332.227 805.888C332.371 808.646 334.723 810.765 337.48 810.621L376.646 808.583C379.404 808.439 381.523 806.087 381.379 803.329C381.236 800.572 378.884 798.452 376.126 798.596L336.96 800.635Z" fill="#36adff" fill-rule="nonzero" opacity="1" stroke="none"/>
<path d="M212.005 807.14C209.247 807.283 207.128 809.635 207.271 812.393C207.415 815.151 209.767 817.27 212.524 817.126L321.564 811.45C324.322 811.306 326.441 808.955 326.298 806.197C326.154 803.439 323.802 801.32 321.044 801.463L212.005 807.14Z" fill="#cbcbcb" fill-rule="nonzero" opacity="1" stroke="none"/>
<path d="M186.922 658.049C184.164 658.192 182.045 660.544 182.188 663.302C182.332 666.059 184.684 668.179 187.442 668.035L218.119 666.438C220.877 666.294 222.996 663.943 222.852 661.185C222.709 658.427 220.357 656.308 217.599 656.452L186.922 658.049Z" fill="#ff613d" fill-rule="nonzero" opacity="1" stroke="none"/>
<path d="M236.823 655.451C234.065 655.594 231.946 657.946 232.09 660.704C232.233 663.462 234.585 665.581 237.343 665.437L276.54 663.397C279.297 663.253 281.417 660.901 281.273 658.144C281.129 655.386 278.778 653.267 276.02 653.41L236.823 655.451Z" fill="#36adff" fill-rule="nonzero" opacity="1" stroke="none"/>
<path d="M133.369 660.836C130.612 660.98 128.492 663.332 128.636 666.09C128.78 668.847 131.131 670.966 133.889 670.823L168.467 669.023C171.225 668.879 173.344 666.527 173.201 663.77C173.057 661.012 170.705 658.893 167.947 659.036L133.369 660.836Z" fill="#ff613d" fill-rule="nonzero" opacity="1" stroke="none"/>
<path d="M294.776 652.434C292.018 652.577 289.899 654.929 290.042 657.687C290.186 660.445 292.538 662.564 295.296 662.42L404.335 656.744C407.093 656.6 409.212 654.249 409.069 651.491C408.925 648.733 406.573 646.614 403.816 646.758L294.776 652.434Z" fill="#cbcbcb" fill-rule="nonzero" opacity="1" stroke="none"/>
<path d="M111.821 631.885C109.063 632.028 106.944 634.38 107.087 637.138C107.231 639.895 109.583 642.015 112.34 641.871L143.018 640.274C145.775 640.13 147.894 637.779 147.751 635.021C147.607 632.263 145.255 630.144 142.498 630.288L111.821 631.885Z" fill="#ff613d" fill-rule="nonzero" opacity="1" stroke="none"/>
<path d="M161.753 629.285C158.995 629.429 156.876 631.781 157.02 634.538C157.163 637.296 159.515 639.415 162.273 639.272L188.082 637.928C190.839 637.785 192.958 635.433 192.815 632.675C192.671 629.917 190.319 627.798 187.562 627.942L161.753 629.285Z" fill="#ff613d" fill-rule="nonzero" opacity="1" stroke="none"/>
<path d="M206.911 626.934C204.153 627.078 202.034 629.43 202.177 632.188C202.321 634.945 204.673 637.064 207.43 636.921L316.47 631.245C319.228 631.101 321.347 628.749 321.204 625.991C321.06 623.234 318.708 621.114 315.95 621.258L206.911 626.934Z" fill="#cbcbcb" fill-rule="nonzero" opacity="1" stroke="none"/>
<path d="M329.76 625.534C329.617 622.777 331.736 620.425 334.493 620.281C337.251 620.138 339.603 622.257 339.747 625.014C339.89 627.772 337.771 630.124 335.013 630.268C332.256 630.411 329.904 628.292 329.76 625.534Z" fill="#cccccc" fill-rule="nonzero" opacity="1" stroke="none"/>
<path d="M154.85 785.043C154.706 782.285 156.825 779.933 159.583 779.789C162.341 779.646 164.693 781.765 164.836 784.523C164.98 787.28 162.861 789.632 160.103 789.776C157.345 789.919 154.993 787.8 154.85 785.043Z" fill="#cbcbcb" fill-rule="nonzero" opacity="1" stroke="none"/>
<path d="M137.991 846.079C137.848 843.321 139.967 840.969 142.725 840.826C145.482 840.682 147.834 842.801 147.978 845.559C148.121 848.317 146.002 850.669 143.244 850.812C140.487 850.956 138.135 848.837 137.991 846.079Z" fill="#cbcbcb" fill-rule="nonzero" opacity="1" stroke="none"/>
<path d="M119.58 877.117C119.436 874.359 121.556 872.007 124.313 871.864C127.071 871.72 129.423 873.839 129.566 876.597C129.71 879.355 127.591 881.707 124.833 881.85C122.075 881.994 119.724 879.875 119.58 877.117Z" fill="#cbcbcb" fill-rule="nonzero" opacity="1" stroke="none"/>
<path d="M156.451 719.793C153.693 719.936 151.574 722.288 151.718 725.046C151.861 727.804 154.213 729.923 156.971 729.779L166.676 729.274C169.434 729.13 171.553 726.779 171.41 724.021C171.266 721.263 168.914 719.144 166.157 719.288L156.451 719.793Z" fill="#ff613d" fill-rule="nonzero" opacity="1" stroke="none"/>
<path d="M327.251 710.901C324.493 711.045 322.374 713.397 322.518 716.155C322.661 718.912 325.013 721.031 327.771 720.888L366.968 718.847C369.725 718.704 371.845 716.352 371.701 713.594C371.558 710.836 369.206 708.717 366.448 708.861L327.251 710.901Z" fill="#36adff" fill-rule="nonzero" opacity="1" stroke="none"/>
<path d="M202.295 717.406C199.537 717.55 197.418 719.902 197.562 722.659C197.705 725.417 200.057 727.536 202.815 727.393L311.855 721.716C314.613 721.573 316.732 719.221 316.588 716.463C316.445 713.706 314.093 711.586 311.335 711.73L202.295 717.406Z" fill="#cbcbcb" fill-rule="nonzero" opacity="1" stroke="none"/>
<path d="M181.685 723.488C181.542 720.73 183.661 718.378 186.418 718.234C189.176 718.091 191.528 720.21 191.672 722.968C191.815 725.725 189.696 728.077 186.938 728.221C184.181 728.364 181.829 726.245 181.685 723.488Z" fill="#36adff" fill-rule="nonzero" opacity="1" stroke="none"/>
<path d="M380.94 713.115C380.796 710.357 382.915 708.005 385.673 707.862C388.431 707.718 390.783 709.837 390.926 712.595C391.07 715.353 388.951 717.705 386.193 717.848C383.435 717.992 381.083 715.872 380.94 713.115Z" fill="#cccccc" fill-rule="nonzero" opacity="1" stroke="none"/>
<path d="M380.43 738.217C377.673 738.361 375.554 740.713 375.697 743.471C375.841 746.228 378.193 748.347 380.95 748.204L399.519 747.237C402.277 747.094 404.396 744.742 404.252 741.984C404.109 739.226 401.757 737.107 398.999 737.251L380.43 738.217Z" fill="#ff613d" fill-rule="nonzero" opacity="1" stroke="none"/>
<path d="M302.944 742.263C300.186 742.406 298.067 744.758 298.211 747.516C298.354 750.273 300.706 752.393 303.464 752.249L361.883 749.177C364.641 749.033 366.76 746.681 366.617 743.923C366.473 741.166 364.121 739.046 361.363 739.19L302.944 742.263Z" fill="#36adff" fill-rule="nonzero" opacity="1" stroke="none"/>
<path d="M177.986 748.756C175.228 748.9 173.109 751.252 173.253 754.009C173.396 756.767 175.748 758.886 178.506 758.743L287.546 753.066C290.303 752.923 292.422 750.571 292.279 747.813C292.135 745.055 289.783 742.936 287.026 743.08L177.986 748.756Z" fill="#cbcbcb" fill-rule="nonzero" opacity="1" stroke="none"/>
<path d="M417.755 736.274C414.997 736.418 412.878 738.77 413.022 741.528C413.165 744.285 415.517 746.404 418.275 746.261L527.315 740.584C530.072 740.441 532.192 738.089 532.048 735.331C531.904 732.574 529.553 730.454 526.795 730.598L417.755 736.274Z" fill="#cbcbcb" fill-rule="nonzero" opacity="1" stroke="none"/>
<path d="M537.771 735.021C537.628 732.263 539.747 729.911 542.505 729.767C545.262 729.624 547.614 731.743 547.758 734.501C547.901 737.258 545.782 739.61 543.024 739.754C540.267 739.897 537.915 737.778 537.771 735.021Z" fill="#cccccc" fill-rule="nonzero" opacity="1" stroke="none"/>
<path d="M134.931 690.835C132.173 690.978 130.054 693.33 130.198 696.088C130.341 698.846 132.693 700.965 135.451 700.821L166.128 699.224C168.886 699.081 171.005 696.729 170.861 693.971C170.718 691.213 168.366 689.094 165.608 689.238L134.931 690.835Z" fill="#ff613d" fill-rule="nonzero" opacity="1" stroke="none"/>
<path d="M185.675 688.193C182.917 688.337 180.798 690.689 180.941 693.446C181.085 696.204 183.437 698.323 186.195 698.18L250.919 694.81C253.677 694.667 255.796 692.315 255.653 689.557C255.509 686.799 253.157 684.68 250.4 684.824L185.675 688.193Z" fill="#af51f5" fill-rule="nonzero" opacity="1" stroke="none"/>
<path d="M266.615 683.979C263.857 684.122 261.738 686.474 261.882 689.232C262.025 691.99 264.377 694.109 267.135 693.965L283.144 693.132C285.902 692.989 288.021 690.637 287.878 687.879C287.734 685.121 285.382 683.002 282.625 683.146L266.615 683.979Z" fill="#cbcbcb" fill-rule="nonzero" opacity="1" stroke="none"/>
</g>
</g>
<g opacity="1">
<path d="M632.125 690.69L720.277 699.498C730.388 700.508 741.974 708.835 746.154 718.097L782.603 798.843C786.784 808.104 785.365 822.301 779.434 830.552L727.73 902.491C721.8 910.742 708.796 916.612 698.685 915.602L610.532 906.794C600.421 905.783 588.836 897.456 584.655 888.195L548.207 807.449C544.027 798.187 545.445 783.99 551.375 775.739L603.08 703.801C609.01 695.55 622.014 689.68 632.125 690.69Z" fill="#5309e8" fill-rule="nonzero" opacity="1" stroke="none"/>
<path d="M606.919 752.198C604.73 752.099 602.505 752.831 600.759 754.425C597.267 757.612 597.023 763.03 600.211 766.522L630.459 799.654L594.253 826.147C590.438 828.938 589.605 834.297 592.397 838.113C595.189 841.928 600.548 842.761 604.363 839.969L648.268 807.84C652.379 804.832 652.97 798.916 649.536 795.154L612.856 754.973C611.262 753.227 609.107 752.298 606.919 752.198ZM662.986 830.817C658.282 830.347 654.087 833.78 653.617 838.484C653.147 843.188 656.579 847.383 661.284 847.853L723.426 854.062C728.13 854.532 732.325 851.1 732.795 846.395C733.265 841.691 729.832 837.497 725.128 837.026L662.986 830.817Z" fill="#ffffff" fill-rule="nonzero" opacity="1" stroke="none"/>
</g>
<g opacity="1">
<path d="M825.859 621.619C807.898 624.711 795.844 641.777 798.935 659.739L812.808 740.335C815.441 755.63 828.347 766.909 843.645 767.688L843.883 769.074C845.752 779.93 859.432 783.692 866.583 775.313L873.364 767.36L882.382 772.594C891.924 778.111 903.559 769.986 901.69 759.123L901.589 758.538L932.756 753.174C942.553 751.487 949.127 742.178 947.441 732.381L928.479 622.22C926.793 612.423 917.484 605.848 907.687 607.534C907.048 607.644 826.498 621.509 825.859 621.619Z" fill="#000000" fill-rule="nonzero" filter="url(#Filter_2)" opacity="0.32" stroke="none"/>
<path d="M825.859 618.619C807.898 621.711 795.844 638.777 798.935 656.739L812.808 737.335C815.441 752.63 828.347 763.909 843.645 764.688L843.883 766.074C845.752 776.93 859.432 780.692 866.583 772.313L873.364 764.36L882.382 769.594C891.924 775.111 903.559 766.986 901.69 756.123L901.589 755.538L932.756 750.174C942.553 748.487 949.127 739.178 947.441 729.381L928.479 619.22C926.793 609.423 917.484 602.848 907.687 604.534C907.048 604.644 826.498 618.509 825.859 618.619Z" fill="#ffffff" fill-rule="nonzero" opacity="1" stroke="none"/>
<path d="M828.064 631.431C817.179 633.304 809.873 643.648 811.747 654.533L825.62 735.129C827.245 744.576 835.253 751.31 844.454 751.706L842.663 741.297C839.062 740.288 836.151 737.364 835.475 733.433C834.538 727.99 838.191 722.819 843.633 721.882L920.534 708.645L923.926 728.355L894.731 733.381L896.427 743.236L930.55 737.362C933.272 736.894 935.098 734.308 934.63 731.586L915.668 621.425C915.199 618.704 912.614 616.877 909.892 617.346L828.064 631.431ZM829.761 641.286L906.661 628.049L918.837 698.79L841.937 712.027C838.332 712.647 835.165 714.242 832.548 716.433C828.904 695.263 821.687 653.334 821.602 652.837C820.665 647.394 824.318 642.223 829.761 641.286ZM851.935 736.212L856.695 763.868L870.496 747.699L888.878 758.329L884.118 730.673L851.935 736.212Z" fill="#000000" fill-rule="nonzero" opacity="1" stroke="none"/>
</g>
</g>
</svg>
