<?xml version="1.0" encoding="UTF-8" standalone="no"?>
<!DOCTYPE svg PUBLIC "-//W3C//DTD SVG 1.1//EN" "http://www.w3.org/Graphics/SVG/1.1/DTD/svg11.dtd">
<!-- Created with Vectornator (http://vectornator.io/) -->
<svg height="100%" stroke-miterlimit="10" style="fill-rule:nonzero;clip-rule:evenodd;stroke-linecap:round;stroke-linejoin:round;" version="1.1" viewBox="70.5699 576.769 877.135 344.842" width="100%" xml:space="preserve" xmlns="http://www.w3.org/2000/svg" xmlns:xlink="http://www.w3.org/1999/xlink">
<defs/>
<g id="レイヤー-2">
<g opacity="1">
<path d="M809.631 578.73L896.16 597.73C906.085 599.909 916.624 609.527 919.699 619.212L946.509 703.649C949.585 713.334 946.525 727.27 939.674 734.775L879.954 800.212C873.105 807.717 859.506 812.035 849.581 809.856L763.051 790.855C753.127 788.676 742.588 779.058 739.513 769.373L712.703 684.936C709.628 675.251 712.688 661.316 719.538 653.81L779.257 588.373C786.107 580.868 799.706 576.55 809.631 578.73Z" fill="#5309e8" fill-rule="nonzero" opacity="1" stroke="none"/>
<path d="M845.972 619.76C829.571 616.159 816.649 621.004 808.496 633.379C805.484 637.951 803.23 643.311 801.254 649.966C799.874 654.614 798.969 658.451 796.973 667.541L789.62 665.926C783.287 664.535 777.026 668.542 775.635 674.875L762.016 736.896C760.626 743.229 764.632 749.49 770.965 750.88L859.144 770.243C865.477 771.633 871.738 767.627 873.129 761.294L886.747 699.273C888.138 692.94 884.132 686.679 877.799 685.289L870.445 683.674C872.441 674.584 873.226 670.721 873.921 665.923C874.915 659.052 875.114 653.241 874.295 647.827C872.076 633.175 862.373 623.361 845.972 619.76ZM843.151 632.608C867.04 637.853 862.813 657.105 857.598 680.853L809.82 670.362C815.035 646.614 819.262 627.362 843.151 632.608Z" fill="#ffffff" fill-rule="nonzero" opacity="1" stroke="none"/>
</g>
<path d="M630.892 642.677C630.841 639.968 634.166 638.632 636.004 640.624L662.555 669.395C664.51 671.514 662.573 674.891 659.756 674.272L645.273 671.092L637.013 683.407C635.407 685.802 631.672 684.703 631.618 681.82L630.892 642.677Z" fill="#cccccc" fill-rule="nonzero" opacity="1" stroke="none"/>
<path d="M512.188 582.913C510.536 580.765 512.414 577.713 515.076 578.221L553.533 585.553C556.366 586.093 556.818 589.959 554.186 591.138L540.652 597.197L541.339 612.01C541.472 614.891 537.817 616.229 536.059 613.944L512.188 582.913Z" fill="#cccccc" fill-rule="nonzero" opacity="1" stroke="none"/>
<path d="M547.883 854.725C550.494 854 552.617 856.886 551.148 859.163L529.915 892.056C528.352 894.478 524.598 893.445 524.494 890.564L523.958 875.745L509.971 870.821C507.251 869.863 507.382 865.972 510.161 865.201L547.883 854.725Z" fill="#000000" fill-rule="nonzero" opacity="1" stroke="none"/>
<path d="M435.311 794.964C438.014 794.777 439.517 798.03 437.621 799.966L410.23 827.939C408.213 829.999 404.742 828.236 405.217 825.391L407.661 810.765L394.943 803.139C392.47 801.656 393.378 797.871 396.255 797.671L435.311 794.964Z" fill="#000000" fill-rule="nonzero" opacity="1" stroke="none"/>
<path d="M715.381 836.131C717.37 834.29 720.58 835.884 720.316 838.581L716.501 877.545C716.22 880.415 712.41 881.215 710.998 878.701L703.736 865.772L689.046 867.799C686.19 868.193 684.525 864.674 686.642 862.716L715.381 836.131Z" fill="#000000" fill-rule="nonzero" opacity="1" stroke="none"/>
<path d="M500.778 694.752C503.115 696.123 502.517 699.657 499.859 700.184L461.459 707.806C458.63 708.367 456.762 704.952 458.76 702.873L469.035 692.181L462.844 678.706C461.64 676.086 464.527 673.474 467.014 674.934L500.778 694.752Z" fill="#000000" fill-rule="nonzero" opacity="1" stroke="none"/>
<path d="M285.275 881.254C287.974 881.007 289.547 884.227 287.694 886.204L260.925 914.773C258.954 916.877 255.445 915.19 255.858 912.336L257.979 897.659L245.097 890.315C242.592 888.887 243.417 885.082 246.288 884.82L285.275 881.254Z" fill="#000000" fill-rule="nonzero" opacity="1" stroke="none"/>
<path d="M271.496 724.924C273.833 726.296 273.236 729.829 270.578 730.357L232.177 737.979C229.349 738.54 227.48 735.125 229.478 733.046L239.753 722.354L233.562 708.879C232.359 706.258 235.246 703.647 237.732 705.107L271.496 724.924Z" fill="#000000" fill-rule="nonzero" opacity="1" stroke="none"/>
<path d="M118.29 814.976C120.955 815.467 121.601 818.992 119.283 820.396L85.7969 840.678C83.3304 842.172 80.4076 839.601 81.575 836.964L87.5787 823.405L77.1568 812.856C75.1301 810.805 76.9511 807.364 79.7871 807.887L118.29 814.976Z" fill="#000000" fill-rule="nonzero" opacity="1" stroke="none"/>
<path d="M854.323 912.422C854.633 915.114 851.451 916.762 849.431 914.956L820.242 888.865C818.092 886.943 819.697 883.396 822.56 883.742L837.282 885.518L844.322 872.467C845.691 869.929 849.513 870.664 849.843 873.529L854.323 912.422Z" fill="#cccccc" fill-rule="nonzero" opacity="1" stroke="none"/>
</g>
</svg>
